<svg xmlns="http://www.w3.org/2000/svg" viewBox="0 0 1440 480" width="1440" height="480">
  <defs>
    <filter id="glow">
      <feGaussianBlur in="SourceGraphic" stdDeviation="3" result="blur"/>
      <feMerge><feMergeNode in="blur"/><feMergeNode in="SourceGraphic"/></feMerge>
    </filter>
  </defs>
  <rect width="1440" height="480" fill="#0A2540"/>
  <polyline points="100,300.0 101,299.9 102,299.9 103,299.9 104,299.8 105,299.8 106,299.8 107,299.7 108,299.7 109,299.6 110,299.5 111,299.5 112,299.4 113,299.3 114,299.2 115,299.2 116,299.1 117,299.0 118,298.9 119,298.8 120,298.7 121,298.5 122,298.4 123,298.3 124,298.2 125,298.1 126,297.9 127,297.8 128,297.6 129,297.5 130,297.3 131,297.2 132,297.0 133,296.8 134,296.7 135,296.5 136,296.3 137,296.1 138,296.0 139,295.8 140,295.6 141,295.4 142,295.2 143,295.0 144,294.7 145,294.5 146,294.3 147,294.1 148,293.8 149,293.6 150,293.4 151,293.1 152,292.9 153,292.6 154,292.4 155,292.1 156,291.9 157,291.6 158,291.3 159,291.1 160,290.8 161,290.5 162,290.2 163,289.9 164,289.6 165,289.4 166,289.1 167,288.8 168,288.4 169,288.1 170,287.8 171,287.5 172,287.2 173,286.9 174,286.5 175,286.2 176,285.9 177,285.5 178,285.2 179,284.9 180,284.5 181,284.2 182,283.8 183,283.5 184,283.1 185,282.7 186,282.4 187,282.0 188,281.6 189,281.2 190,280.9 191,280.5 192,280.1 193,279.7 194,279.3 195,278.9 196,278.5 197,278.2 198,277.8 199,277.3 200,276.9 201,276.5 202,276.1 203,275.7 204,275.3 205,274.9 206,274.5 207,274.0 208,273.6 209,273.2 210,272.8 211,272.3 212,271.9 213,271.5 214,271.0 215,270.6 216,270.1 217,269.7 218,269.3 219,268.8 220,268.4 221,267.9 222,267.5 223,267.0 224,266.5 225,266.1 226,265.6 227,265.2 228,264.7 229,264.2 230,263.8 231,263.3 232,262.8 233,262.4 234,261.9 235,261.4 236,261.0 237,260.5 238,260.0 239,259.5 240,259.1 241,258.6 242,258.1 243,257.6 244,257.1 245,256.6 246,256.2 247,255.7 248,255.2 249,254.7 250,254.2 251,253.7 252,253.2 253,252.8 254,252.3 255,251.8 256,251.3 257,250.8 258,250.3 259,249.8 260,249.3 261,248.8 262,248.3 263,247.8 264,247.4 265,246.9 266,246.4 267,245.9 268,245.4 269,244.9 270,244.4 271,243.9 272,243.4 273,242.9 274,242.4 275,241.9 276,241.4 277,241.0 278,240.5 279,240.0 280,239.5 281,239.0 282,238.5 283,238.0 284,237.5 285,237.0 286,236.6 287,236.1 288,235.6 289,235.1 290,234.6 291,234.1 292,233.7 293,233.2 294,232.7 295,232.2 296,231.7 297,231.3 298,230.8 299,230.3 300,229.8 301,229.4 302,228.9 303,228.4 304,227.9 305,227.5 306,227.0 307,226.5 308,226.1 309,225.6 310,225.2 311,224.7 312,224.2 313,223.8 314,223.3 315,222.9 316,222.4 317,222.0 318,221.5 319,221.1 320,220.6 321,220.2 322,219.7 323,219.3 324,218.9 325,218.4 326,218.0 327,217.6 328,217.1 329,216.7 330,216.3 331,215.8 332,215.4 333,215.0 334,214.6 335,214.2 336,213.7 337,213.3 338,212.9 339,212.5 340,212.1 341,211.7 342,211.3 343,210.9 344,210.5 345,210.1 346,209.7 347,209.3 348,208.9 349,208.5 350,208.2 351,207.8 352,207.4 353,207.0 354,206.6 355,206.3 356,205.9 357,205.5 358,205.2 359,204.8 360,204.4 361,204.1 362,203.7 363,203.4 364,203.0 365,202.7 366,202.3 367,202.0 368,201.7 369,201.3 370,201.0 371,200.7 372,200.3 373,200.0 374,199.7 375,199.4 376,199.0 377,198.7 378,198.4 379,198.1 380,197.8 381,197.5 382,197.2 383,196.9 384,196.6 385,196.3 386,196.0 387,195.7 388,195.4 389,195.2 390,194.9 391,194.6 392,194.3 393,194.1 394,193.8 395,193.5 396,193.3 397,193.0 398,192.7 399,192.5 400,192.2 401,192.0 402,191.7 403,191.5 404,191.2 405,191.0 406,190.8 407,190.5 408,190.3 409,190.1 410,189.9 411,189.6 412,189.4 413,189.2 414,189.0 415,188.8 416,188.6 417,188.4 418,188.2 419,188.0 420,187.8 421,187.6 422,187.4 423,187.2 424,187.0 425,186.8 426,186.7 427,186.5 428,186.3 429,186.1 430,186.0 431,185.8 432,185.6 433,185.5 434,185.3 435,185.2 436,185.0 437,184.9 438,184.7 439,184.6 440,184.4 441,184.3 442,184.1 443,184.0 444,183.9 445,183.7 446,183.6 447,183.5 448,183.4 449,183.3 450,183.1 451,183.0 452,182.9 453,182.8 454,182.7 455,182.6 456,182.5 457,182.4 458,182.3 459,182.2 460,182.1 461,182.0 462,181.9 463,181.8 464,181.7 465,181.7 466,181.6 467,181.5 468,181.4 469,181.4 470,181.3 471,181.2 472,181.1 473,181.1 474,181.0 475,181.0 476,180.9 477,180.8 478,180.8 479,180.7 480,180.7 481,180.6 482,180.6 483,180.5 484,180.5 485,180.5 486,180.4 487,180.4 488,180.3 489,180.3 490,180.3 491,180.3 492,180.2 493,180.2 494,180.2 495,180.2 496,180.1 497,180.1 498,180.1 499,180.1 500,180.1 501,180.0 502,180.0 503,180.0 504,180.0 505,180.0 506,180.0 507,180.0 508,180.0 509,180.0 510,180.0 511,180.0 512,180.0 513,180.0 514,180.0 515,180.0 516,180.0 517,180.0 518,180.1 519,180.1 520,180.1 521,180.1 522,180.1 523,180.1 524,180.1 525,180.2 526,180.2 527,180.2 528,180.2 529,180.2 530,180.3 531,180.3 532,180.3 533,180.4 534,180.4 535,180.4 536,180.4 537,180.5 538,180.5 539,180.5 540,180.6 541,180.6 542,180.6 543,180.7 544,180.7 545,180.7 546,180.8 547,180.8 548,180.9 549,180.9 550,180.9 551,181.0 552,181.0 553,181.1 554,181.1 555,181.1 556,181.2 557,181.2 558,181.3 559,181.3 560,181.4 561,181.4 562,181.5 563,181.5 564,181.6 565,181.6 566,181.6 567,181.7 568,181.7 569,181.8 570,181.8 571,181.9 572,181.9 573,182.0 574,182.0 575,182.1 576,182.1 577,182.2 578,182.2 579,182.3 580,182.3 581,182.4 582,182.4 583,182.5 584,182.5 585,182.6 586,182.6 587,182.7 588,182.7 589,182.8 590,182.8 591,182.9 592,182.9 593,183.0 594,183.0 595,183.1 596,183.1 597,183.2 598,183.2 599,183.3 600,183.3 601,183.4 602,183.4 603,183.5 604,183.5 605,183.5 606,183.6 607,183.6 608,183.7 609,183.7 610,183.8 611,183.8 612,183.9 613,183.9 614,184.0 615,184.0 616,184.0 617,184.1 618,184.1 619,184.2 620,184.2 621,184.2 622,184.3 623,184.3 624,184.4 625,184.4 626,184.4 627,184.5 628,184.5 629,184.6 630,184.6 631,184.6 632,184.7 633,184.7 634,184.7 635,184.8 636,184.8 637,184.8 638,184.9 639,184.9 640,184.9 641,185.0 642,185.0 643,185.0 644,185.0 645,185.1 646,185.1 647,185.1 648,185.2 649,185.2 650,185.2 651,185.2 652,185.3 653,185.3 654,185.3 655,185.3 656,185.3 657,185.4 658,185.4 659,185.4 660,185.4 661,185.4 662,185.5 663,185.5 664,185.5 665,185.5 666,185.5 667,185.5 668,185.5 669,185.6 670,185.6 671,185.6 672,185.6 673,185.6 674,185.6 675,185.6 676,185.6 677,185.6 678,185.6 679,185.6 680,185.6 681,185.7 682,185.7 683,185.7 684,185.7 685,185.7 686,185.7 687,185.7 688,185.7 689,185.7 690,185.7 691,185.7 692,185.7 693,185.7 694,185.6 695,185.6 696,185.6 697,185.6 698,185.6 699,185.6 700,185.6 701,185.6 702,185.6 703,185.6 704,185.6 705,185.6 706,185.5 707,185.5 708,185.5 709,185.5 710,185.5 711,185.5 712,185.5 713,185.5 714,185.4 715,185.4 716,185.4 717,185.4 718,185.4 719,185.3 720,185.3 721,185.3 722,185.3 723,185.3 724,185.2 725,185.2 726,185.2 727,185.2 728,185.2 729,185.1 730,185.1 731,185.1 732,185.1 733,185.0 734,185.0 735,185.0 736,185.0 737,184.9 738,184.9 739,184.9 740,184.8 741,184.8 742,184.8 743,184.8 744,184.7 745,184.7 746,184.7 747,184.6 748,184.6 749,184.6 750,184.5 751,184.5 752,184.5 753,184.4 754,184.4 755,184.4 756,184.3 757,184.3 758,184.3 759,184.2 760,184.2 761,184.2 762,184.1 763,184.1 764,184.1 765,184.0 766,184.0 767,183.9 768,183.9 769,183.9 770,183.8 771,183.8 772,183.8 773,183.7 774,183.7 775,183.7 776,183.6 777,183.6 778,183.5 779,183.5 780,183.5 781,183.4 782,183.4 783,183.4 784,183.3 785,183.3 786,183.2 787,183.2 788,183.2 789,183.1 790,183.1 791,183.0 792,183.0 793,183.0 794,182.9 795,182.9 796,182.9 797,182.8 798,182.8 799,182.7 800,182.7 801,182.7 802,182.6 803,182.6 804,182.5 805,182.5 806,182.5 807,182.4 808,182.4 809,182.4 810,182.3 811,182.3 812,182.2 813,182.2 814,182.2 815,182.1 816,182.1 817,182.1 818,182.0 819,182.0 820,182.0 821,181.9 822,181.9 823,181.9 824,181.8 825,181.8 826,181.7 827,181.7 828,181.7 829,181.6 830,181.6 831,181.6 832,181.5 833,181.5 834,181.5 835,181.4 836,181.4 837,181.4 838,181.4 839,181.3 840,181.3 841,181.3 842,181.2 843,181.2 844,181.2 845,181.1 846,181.1 847,181.1 848,181.1 849,181.0 850,181.0 851,181.0 852,180.9 853,180.9 854,180.9 855,180.9 856,180.8 857,180.8 858,180.8 859,180.8 860,180.7 861,180.7 862,180.7 863,180.7 864,180.7 865,180.6 866,180.6 867,180.6 868,180.6 869,180.5 870,180.5 871,180.5 872,180.5 873,180.5 874,180.4 875,180.4 876,180.4 877,180.4 878,180.4 879,180.4 880,180.3 881,180.3 882,180.3 883,180.3 884,180.3 885,180.3 886,180.3 887,180.2 888,180.2 889,180.2 890,180.2 891,180.2 892,180.2 893,180.2 894,180.2 895,180.1 896,180.1 897,180.1 898,180.1 899,180.1 900,180.1 901,180.1 902,180.1 903,180.1 904,180.1 905,180.1 906,180.0 907,180.0 908,180.0 909,180.0 910,180.0 911,180.0 912,180.0 913,180.0 914,180.0 915,180.0 916,180.0 917,180.0 918,180.0 919,180.0 920,180.0 921,180.0 922,180.0 923,180.0 924,180.0 925,180.0 926,180.0 927,180.0 928,180.0 929,180.0 930,180.0 931,180.0 932,180.0 933,180.0 934,180.0 935,180.0 936,180.0 937,180.0 938,180.0 939,180.0 940,180.1 941,180.1 942,180.1 943,180.1 944,180.1 945,180.1 946,180.1 947,180.1 948,180.1 949,180.1 950,180.1 951,180.1 952,180.1 953,180.1 954,180.2 955,180.2 956,180.2 957,180.2 958,180.2 959,180.2 960,180.2 961,180.2 962,180.2 963,180.3 964,180.3 965,180.3 966,180.3 967,180.3 968,180.3 969,180.3 970,180.3 971,180.4 972,180.4 973,180.4 974,180.4 975,180.4 976,180.4 977,180.4 978,180.4 979,180.5 980,180.5 981,180.5 982,180.5 983,180.5 984,180.5 985,180.5 986,180.6 987,180.6 988,180.6 989,180.6 990,180.6 991,180.6 992,180.7 993,180.7 994,180.7 995,180.7 996,180.7 997,180.7 998,180.8 999,180.8 1000,180.8 1001,180.8 1002,180.8 1003,180.8 1004,180.8 1005,180.9 1006,180.9 1007,180.9 1008,180.9 1009,180.9 1010,180.9 1011,181.0 1012,181.0 1013,181.0 1014,181.0 1015,181.0 1016,181.0 1017,181.1 1018,181.1 1019,181.1 1020,181.1 1021,181.1 1022,181.1 1023,181.2 1024,181.2 1025,181.2 1026,181.2 1027,181.2 1028,181.2 1029,181.2 1030,181.3 1031,181.3 1032,181.3 1033,181.3 1034,181.3 1035,181.3 1036,181.4 1037,181.4 1038,181.4 1039,181.4 1040,181.4 1041,181.4 1042,181.4 1043,181.5 1044,181.5 1045,181.5 1046,181.5 1047,181.5 1048,181.5 1049,181.5 1050,181.6 1051,181.6 1052,181.6 1053,181.6 1054,181.6 1055,181.6 1056,181.6 1057,181.6 1058,181.6 1059,181.7 1060,181.7 1061,181.7 1062,181.7 1063,181.7 1064,181.7 1065,181.7 1066,181.7 1067,181.7 1068,181.8 1069,181.8 1070,181.8 1071,181.8 1072,181.8 1073,181.8 1074,181.8 1075,181.8 1076,181.8 1077,181.8 1078,181.8 1079,181.9 1080,181.9 1081,181.9 1082,181.9 1083,181.9 1084,181.9 1085,181.9 1086,181.9 1087,181.9 1088,181.9 1089,181.9 1090,181.9 1091,181.9 1092,181.9 1093,181.9 1094,181.9 1095,181.9 1096,181.9 1097,182.0 1098,182.0 1099,182.0 1100,182.0 1101,182.0 1102,182.0 1103,182.0 1104,182.0 1105,182.0 1106,182.0 1107,182.0 1108,182.0 1109,182.0 1110,182.0 1111,182.0 1112,182.0 1113,182.0 1114,182.0 1115,182.0 1116,182.0 1117,182.0 1118,182.0 1119,182.0 1120,182.0 1121,182.0 1122,182.0 1123,182.0 1124,182.0 1125,182.0 1126,182.0 1127,182.0 1128,181.9 1129,181.9 1130,181.9 1131,181.9 1132,181.9 1133,181.9 1134,181.9 1135,181.9 1136,181.9 1137,181.9 1138,181.9 1139,181.9 1140,181.9 1141,181.9 1142,181.9 1143,181.9 1144,181.9 1145,181.9 1146,181.9 1147,181.8 1148,181.8 1149,181.8 1150,181.8 1151,181.8 1152,181.8 1153,181.8 1154,181.8 1155,181.8 1156,181.8 1157,181.8 1158,181.8 1159,181.7 1160,181.7 1161,181.7 1162,181.7 1163,181.7 1164,181.7 1165,181.7 1166,181.7 1167,181.7 1168,181.7 1169,181.6 1170,181.6 1171,181.6 1172,181.6 1173,181.6 1174,181.6 1175,181.6 1176,181.6 1177,181.6 1178,181.5 1179,181.5 1180,181.5 1181,181.5 1182,181.5 1183,181.5 1184,181.5 1185,181.5 1186,181.4 1187,181.4 1188,181.4 1189,181.4 1190,181.4 1191,181.4 1192,181.4 1193,181.4 1194,181.3 1195,181.3 1196,181.3 1197,181.3 1198,181.3 1199,181.3 1200,181.3 1201,181.2 1202,181.2 1203,181.2 1204,181.2 1205,181.2 1206,181.2 1207,181.2 1208,181.1 1209,181.1 1210,181.1 1211,181.1 1212,181.1 1213,181.1 1214,181.1 1215,181.0 1216,181.0 1217,181.0 1218,181.0 1219,181.0 1220,181.0 1221,181.0 1222,180.9 1223,180.9 1224,180.9 1225,180.9 1226,180.9 1227,180.9 1228,180.9 1229,180.9 1230,180.8 1231,180.8 1232,180.8 1233,180.8 1234,180.8 1235,180.8 1236,180.8 1237,180.7 1238,180.7 1239,180.7 1240,180.7 1241,180.7 1242,180.7 1243,180.7 1244,180.7 1245,180.6 1246,180.6 1247,180.6 1248,180.6 1249,180.6 1250,180.6 1251,180.6 1252,180.6 1253,180.5 1254,180.5 1255,180.5 1256,180.5 1257,180.5 1258,180.5 1259,180.5 1260,180.5 1261,180.4 1262,180.4 1263,180.4 1264,180.4 1265,180.4 1266,180.4 1267,180.4 1268,180.4 1269,180.4 1270,180.3 1271,180.3 1272,180.3 1273,180.3 1274,180.3 1275,180.3 1276,180.3 1277,180.3 1278,180.3 1279,180.3 1280,180.3 1281,180.2 1282,180.2 1283,180.2 1284,180.2 1285,180.2 1286,180.2 1287,180.2 1288,180.2 1289,180.2 1290,180.2 1291,180.2 1292,180.2 1293,180.1 1294,180.1 1295,180.1 1296,180.1 1297,180.1 1298,180.1 1299,180.1 1300,180.1 1301,180.1 1302,180.1 1303,180.1 1304,180.1 1305,180.1 1306,180.1 1307,180.1 1308,180.1 1309,180.1 1310,180.1 1311,180.0 1312,180.0 1313,180.0 1314,180.0 1315,180.0 1316,180.0 1317,180.0 1318,180.0 1319,180.0 1320,180.0 1321,180.0 1322,180.0 1323,180.0 1324,180.0 1325,180.0 1326,180.0 1327,180.0 1328,180.0 1329,180.0 1330,180.0 1331,180.0 1332,180.0 1333,180.0 1334,180.0 1335,180.0 1336,180.0 1337,180.0 1338,180.0 1339,180.0" fill="none" stroke="#D4AF37" stroke-width="1.5" opacity="0.25"/>
  <line x1="867.4" y1="240.0" x2="762.5" y2="297.7" stroke="#FFFFFF" stroke-width="0.5" opacity="0.15"/>
  <line x1="867.4" y1="240.0" x2="824.8" y2="297.7" stroke="#FFFFFF" stroke-width="0.5" opacity="0.15"/>
  <line x1="867.4" y1="240.0" x2="762.5" y2="337.3" stroke="#FFFFFF" stroke-width="0.5" opacity="0.15"/>
  <line x1="867.4" y1="240.0" x2="824.8" y2="337.3" stroke="#FFFFFF" stroke-width="0.5" opacity="0.15"/>
  <line x1="867.4" y1="240.0" x2="762.5" y2="142.7" stroke="#FFFFFF" stroke-width="0.5" opacity="0.15"/>
  <line x1="867.4" y1="240.0" x2="824.8" y2="142.7" stroke="#FFFFFF" stroke-width="0.5" opacity="0.15"/>
  <line x1="867.4" y1="240.0" x2="762.5" y2="182.3" stroke="#FFFFFF" stroke-width="0.5" opacity="0.15"/>
  <line x1="867.4" y1="240.0" x2="824.8" y2="182.3" stroke="#FFFFFF" stroke-width="0.5" opacity="0.15"/>
  <line x1="572.6" y1="240.0" x2="615.2" y2="297.7" stroke="#FFFFFF" stroke-width="0.5" opacity="0.15"/>
  <line x1="572.6" y1="240.0" x2="677.5" y2="297.7" stroke="#FFFFFF" stroke-width="0.5" opacity="0.15"/>
  <line x1="572.6" y1="240.0" x2="615.2" y2="337.3" stroke="#FFFFFF" stroke-width="0.5" opacity="0.15"/>
  <line x1="572.6" y1="240.0" x2="677.5" y2="337.3" stroke="#FFFFFF" stroke-width="0.5" opacity="0.15"/>
  <line x1="572.6" y1="240.0" x2="615.2" y2="142.7" stroke="#FFFFFF" stroke-width="0.5" opacity="0.15"/>
  <line x1="572.6" y1="240.0" x2="677.5" y2="142.7" stroke="#FFFFFF" stroke-width="0.5" opacity="0.15"/>
  <line x1="572.6" y1="240.0" x2="615.2" y2="182.3" stroke="#FFFFFF" stroke-width="0.5" opacity="0.15"/>
  <line x1="572.6" y1="240.0" x2="677.5" y2="182.3" stroke="#FFFFFF" stroke-width="0.5" opacity="0.15"/>
  <line x1="720.0" y1="395.0" x2="762.5" y2="297.7" stroke="#D4AF37" stroke-width="0.8" opacity="0.5"/>
  <line x1="720.0" y1="395.0" x2="824.8" y2="297.7" stroke="#D4AF37" stroke-width="0.8" opacity="0.5"/>
  <line x1="720.0" y1="395.0" x2="762.5" y2="337.3" stroke="#FFFFFF" stroke-width="0.5" opacity="0.15"/>
  <line x1="720.0" y1="395.0" x2="824.8" y2="337.3" stroke="#FFFFFF" stroke-width="0.5" opacity="0.15"/>
  <line x1="720.0" y1="395.0" x2="615.2" y2="297.7" stroke="#D4AF37" stroke-width="0.8" opacity="0.5"/>
  <line x1="720.0" y1="395.0" x2="677.5" y2="297.7" stroke="#D4AF37" stroke-width="0.8" opacity="0.5"/>
  <line x1="720.0" y1="395.0" x2="615.2" y2="337.3" stroke="#FFFFFF" stroke-width="0.5" opacity="0.15"/>
  <line x1="720.0" y1="395.0" x2="677.5" y2="337.3" stroke="#FFFFFF" stroke-width="0.5" opacity="0.15"/>
  <line x1="720.0" y1="85.0" x2="762.5" y2="142.7" stroke="#FFFFFF" stroke-width="0.5" opacity="0.15"/>
  <line x1="720.0" y1="85.0" x2="824.8" y2="142.7" stroke="#FFFFFF" stroke-width="0.5" opacity="0.15"/>
  <line x1="720.0" y1="85.0" x2="762.5" y2="182.3" stroke="#FFFFFF" stroke-width="0.5" opacity="0.15"/>
  <line x1="720.0" y1="85.0" x2="824.8" y2="182.3" stroke="#FFFFFF" stroke-width="0.5" opacity="0.15"/>
  <line x1="720.0" y1="85.0" x2="615.2" y2="142.7" stroke="#FFFFFF" stroke-width="0.5" opacity="0.15"/>
  <line x1="720.0" y1="85.0" x2="677.5" y2="142.7" stroke="#FFFFFF" stroke-width="0.5" opacity="0.15"/>
  <line x1="720.0" y1="85.0" x2="615.2" y2="182.3" stroke="#FFFFFF" stroke-width="0.5" opacity="0.15"/>
  <line x1="720.0" y1="85.0" x2="677.5" y2="182.3" stroke="#FFFFFF" stroke-width="0.5" opacity="0.15"/>
  <line x1="720.0" y1="200.4" x2="762.5" y2="297.7" stroke="#D4AF37" stroke-width="0.8" opacity="0.5"/>
  <line x1="720.0" y1="200.4" x2="824.8" y2="297.7" stroke="#D4AF37" stroke-width="0.8" opacity="0.5"/>
  <line x1="720.0" y1="200.4" x2="762.5" y2="142.7" stroke="#D4AF37" stroke-width="0.8" opacity="0.5"/>
  <line x1="720.0" y1="200.4" x2="824.8" y2="142.7" stroke="#D4AF37" stroke-width="0.8" opacity="0.5"/>
  <line x1="720.0" y1="200.4" x2="615.2" y2="297.7" stroke="#D4AF37" stroke-width="0.8" opacity="0.5"/>
  <line x1="720.0" y1="200.4" x2="677.5" y2="297.7" stroke="#D4AF37" stroke-width="0.8" opacity="0.5"/>
  <line x1="720.0" y1="200.4" x2="615.2" y2="142.7" stroke="#D4AF37" stroke-width="0.8" opacity="0.5"/>
  <line x1="720.0" y1="200.4" x2="677.5" y2="142.7" stroke="#D4AF37" stroke-width="0.8" opacity="0.5"/>
  <line x1="720.0" y1="279.6" x2="762.5" y2="337.3" stroke="#FFFFFF" stroke-width="0.5" opacity="0.15"/>
  <line x1="720.0" y1="279.6" x2="824.8" y2="337.3" stroke="#FFFFFF" stroke-width="0.5" opacity="0.15"/>
  <line x1="720.0" y1="279.6" x2="762.5" y2="182.3" stroke="#FFFFFF" stroke-width="0.5" opacity="0.15"/>
  <line x1="720.0" y1="279.6" x2="824.8" y2="182.3" stroke="#FFFFFF" stroke-width="0.5" opacity="0.15"/>
  <line x1="720.0" y1="279.6" x2="615.2" y2="337.3" stroke="#FFFFFF" stroke-width="0.5" opacity="0.15"/>
  <line x1="720.0" y1="279.6" x2="677.5" y2="337.3" stroke="#FFFFFF" stroke-width="0.5" opacity="0.15"/>
  <line x1="720.0" y1="279.6" x2="615.2" y2="182.3" stroke="#FFFFFF" stroke-width="0.5" opacity="0.15"/>
  <line x1="720.0" y1="279.6" x2="677.5" y2="182.3" stroke="#FFFFFF" stroke-width="0.5" opacity="0.15"/>
  <line x1="657.7" y1="240.0" x2="762.5" y2="297.7" stroke="#FFFFFF" stroke-width="0.5" opacity="0.15"/>
  <line x1="657.7" y1="240.0" x2="762.5" y2="337.3" stroke="#FFFFFF" stroke-width="0.5" opacity="0.15"/>
  <line x1="657.7" y1="240.0" x2="762.5" y2="142.7" stroke="#FFFFFF" stroke-width="0.5" opacity="0.15"/>
  <line x1="657.7" y1="240.0" x2="762.5" y2="182.3" stroke="#FFFFFF" stroke-width="0.5" opacity="0.15"/>
  <line x1="657.7" y1="240.0" x2="615.2" y2="297.7" stroke="#FFFFFF" stroke-width="0.5" opacity="0.15"/>
  <line x1="657.7" y1="240.0" x2="615.2" y2="337.3" stroke="#FFFFFF" stroke-width="0.5" opacity="0.15"/>
  <line x1="657.7" y1="240.0" x2="615.2" y2="142.7" stroke="#FFFFFF" stroke-width="0.5" opacity="0.15"/>
  <line x1="657.7" y1="240.0" x2="615.2" y2="182.3" stroke="#FFFFFF" stroke-width="0.5" opacity="0.15"/>
  <line x1="782.3" y1="240.0" x2="824.8" y2="297.7" stroke="#FFFFFF" stroke-width="0.5" opacity="0.15"/>
  <line x1="782.3" y1="240.0" x2="824.8" y2="337.3" stroke="#FFFFFF" stroke-width="0.5" opacity="0.15"/>
  <line x1="782.3" y1="240.0" x2="824.8" y2="142.7" stroke="#FFFFFF" stroke-width="0.5" opacity="0.15"/>
  <line x1="782.3" y1="240.0" x2="824.8" y2="182.3" stroke="#FFFFFF" stroke-width="0.5" opacity="0.15"/>
  <line x1="782.3" y1="240.0" x2="677.5" y2="297.7" stroke="#FFFFFF" stroke-width="0.5" opacity="0.15"/>
  <line x1="782.3" y1="240.0" x2="677.5" y2="337.3" stroke="#FFFFFF" stroke-width="0.5" opacity="0.15"/>
  <line x1="782.3" y1="240.0" x2="677.5" y2="142.7" stroke="#FFFFFF" stroke-width="0.5" opacity="0.15"/>
  <line x1="782.3" y1="240.0" x2="677.5" y2="182.3" stroke="#FFFFFF" stroke-width="0.5" opacity="0.15"/>
  <line x1="762.5" y1="297.7" x2="824.8" y2="297.7" stroke="#D4AF37" stroke-width="0.8" opacity="0.5"/>
  <line x1="762.5" y1="297.7" x2="762.5" y2="337.3" stroke="#FFFFFF" stroke-width="0.5" opacity="0.15"/>
  <line x1="762.5" y1="297.7" x2="762.5" y2="142.7" stroke="#D4AF37" stroke-width="0.8" opacity="0.5"/>
  <line x1="762.5" y1="297.7" x2="615.2" y2="297.7" stroke="#D4AF37" stroke-width="0.8" opacity="0.5"/>
  <line x1="824.8" y1="297.7" x2="824.8" y2="337.3" stroke="#FFFFFF" stroke-width="0.5" opacity="0.15"/>
  <line x1="824.8" y1="297.7" x2="824.8" y2="142.7" stroke="#D4AF37" stroke-width="0.8" opacity="0.5"/>
  <line x1="824.8" y1="297.7" x2="677.5" y2="297.7" stroke="#D4AF37" stroke-width="0.8" opacity="0.5"/>
  <line x1="762.5" y1="337.3" x2="824.8" y2="337.3" stroke="#FFFFFF" stroke-width="0.5" opacity="0.15"/>
  <line x1="762.5" y1="337.3" x2="762.5" y2="182.3" stroke="#FFFFFF" stroke-width="0.5" opacity="0.15"/>
  <line x1="762.5" y1="337.3" x2="615.2" y2="337.3" stroke="#FFFFFF" stroke-width="0.5" opacity="0.15"/>
  <line x1="824.8" y1="337.3" x2="824.8" y2="182.3" stroke="#FFFFFF" stroke-width="0.5" opacity="0.15"/>
  <line x1="824.8" y1="337.3" x2="677.5" y2="337.3" stroke="#FFFFFF" stroke-width="0.5" opacity="0.15"/>
  <line x1="762.5" y1="142.7" x2="824.8" y2="142.7" stroke="#D4AF37" stroke-width="0.8" opacity="0.5"/>
  <line x1="762.5" y1="142.7" x2="762.5" y2="182.3" stroke="#FFFFFF" stroke-width="0.5" opacity="0.15"/>
  <line x1="762.5" y1="142.7" x2="615.2" y2="142.7" stroke="#D4AF37" stroke-width="0.8" opacity="0.5"/>
  <line x1="824.8" y1="142.7" x2="824.8" y2="182.3" stroke="#FFFFFF" stroke-width="0.5" opacity="0.15"/>
  <line x1="824.8" y1="142.7" x2="677.5" y2="142.7" stroke="#D4AF37" stroke-width="0.8" opacity="0.5"/>
  <line x1="762.5" y1="182.3" x2="824.8" y2="182.3" stroke="#FFFFFF" stroke-width="0.5" opacity="0.15"/>
  <line x1="762.5" y1="182.3" x2="615.2" y2="182.3" stroke="#FFFFFF" stroke-width="0.5" opacity="0.15"/>
  <line x1="824.8" y1="182.3" x2="677.5" y2="182.3" stroke="#FFFFFF" stroke-width="0.5" opacity="0.15"/>
  <line x1="615.2" y1="297.7" x2="677.5" y2="297.7" stroke="#D4AF37" stroke-width="0.8" opacity="0.5"/>
  <line x1="615.2" y1="297.7" x2="615.2" y2="337.3" stroke="#FFFFFF" stroke-width="0.5" opacity="0.15"/>
  <line x1="615.2" y1="297.7" x2="615.2" y2="142.7" stroke="#D4AF37" stroke-width="0.8" opacity="0.5"/>
  <line x1="677.5" y1="297.7" x2="677.5" y2="337.3" stroke="#FFFFFF" stroke-width="0.5" opacity="0.15"/>
  <line x1="677.5" y1="297.7" x2="677.5" y2="142.7" stroke="#D4AF37" stroke-width="0.8" opacity="0.5"/>
  <line x1="615.2" y1="337.3" x2="677.5" y2="337.3" stroke="#FFFFFF" stroke-width="0.5" opacity="0.15"/>
  <line x1="615.2" y1="337.3" x2="615.2" y2="182.3" stroke="#FFFFFF" stroke-width="0.5" opacity="0.15"/>
  <line x1="677.5" y1="337.3" x2="677.5" y2="182.3" stroke="#FFFFFF" stroke-width="0.5" opacity="0.15"/>
  <line x1="615.2" y1="142.7" x2="677.5" y2="142.7" stroke="#D4AF37" stroke-width="0.8" opacity="0.5"/>
  <line x1="615.2" y1="142.7" x2="615.2" y2="182.3" stroke="#FFFFFF" stroke-width="0.5" opacity="0.15"/>
  <line x1="677.5" y1="142.7" x2="677.5" y2="182.3" stroke="#FFFFFF" stroke-width="0.5" opacity="0.15"/>
  <line x1="615.2" y1="182.3" x2="677.5" y2="182.3" stroke="#FFFFFF" stroke-width="0.5" opacity="0.15"/>
  <circle cx="867.4" cy="240.0" r="4.0" fill="#D4AF37" opacity="0.70" filter="url(#glow)"/>
  <circle cx="572.6" cy="240.0" r="4.0" fill="#D4AF37" opacity="0.70" filter="url(#glow)"/>
  <circle cx="720.0" cy="395.0" r="4.4" fill="#D4AF37" opacity="0.78" filter="url(#glow)"/>
  <circle cx="720.0" cy="85.0" r="3.6" fill="#D4AF37" opacity="0.62" filter="url(#glow)"/>
  <circle cx="720.0" cy="200.4" r="5.5" fill="#D4AF37" opacity="1.00" filter="url(#glow)"/>
  <circle cx="720.0" cy="279.6" r="2.5" fill="#D4AF37" opacity="0.40" filter="url(#glow)"/>
  <circle cx="657.7" cy="240.0" r="4.0" fill="#D4AF37" opacity="0.70" filter="url(#glow)"/>
  <circle cx="782.3" cy="240.0" r="4.0" fill="#D4AF37" opacity="0.70" filter="url(#glow)"/>
  <circle cx="762.5" cy="297.7" r="4.9" fill="#D4AF37" opacity="0.89" filter="url(#glow)"/>
  <circle cx="824.8" cy="297.7" r="4.9" fill="#D4AF37" opacity="0.89" filter="url(#glow)"/>
  <circle cx="762.5" cy="337.3" r="3.4" fill="#D4AF37" opacity="0.59" filter="url(#glow)"/>
  <circle cx="824.8" cy="337.3" r="3.4" fill="#D4AF37" opacity="0.59" filter="url(#glow)"/>
  <circle cx="762.5" cy="142.7" r="4.6" fill="#D4AF37" opacity="0.81" filter="url(#glow)"/>
  <circle cx="824.8" cy="142.7" r="4.6" fill="#D4AF37" opacity="0.81" filter="url(#glow)"/>
  <circle cx="762.5" cy="182.3" r="3.1" fill="#D4AF37" opacity="0.51" filter="url(#glow)"/>
  <circle cx="824.8" cy="182.3" r="3.1" fill="#D4AF37" opacity="0.51" filter="url(#glow)"/>
  <circle cx="615.2" cy="297.7" r="4.9" fill="#D4AF37" opacity="0.89" filter="url(#glow)"/>
  <circle cx="677.5" cy="297.7" r="4.9" fill="#D4AF37" opacity="0.89" filter="url(#glow)"/>
  <circle cx="615.2" cy="337.3" r="3.4" fill="#D4AF37" opacity="0.59" filter="url(#glow)"/>
  <circle cx="677.5" cy="337.3" r="3.4" fill="#D4AF37" opacity="0.59" filter="url(#glow)"/>
  <circle cx="615.2" cy="142.7" r="4.6" fill="#D4AF37" opacity="0.81" filter="url(#glow)"/>
  <circle cx="677.5" cy="142.7" r="4.6" fill="#D4AF37" opacity="0.81" filter="url(#glow)"/>
  <circle cx="615.2" cy="182.3" r="3.1" fill="#D4AF37" opacity="0.51" filter="url(#glow)"/>
  <circle cx="677.5" cy="182.3" r="3.1" fill="#D4AF37" opacity="0.51" filter="url(#glow)"/>
  <text x="720.0" y="70" text-anchor="middle" font-family="Georgia, serif" font-size="56" fill="#FFFFFF" font-weight="bold">U₂₄</text>
  <text x="720.0" y="110" text-anchor="middle" font-family="Georgia, serif" font-size="24" fill="#D4AF37">Spectral Operator</text>
</svg>